<?xml version="1.0" encoding="utf-8" standalone="no"?>
<!DOCTYPE svg PUBLIC "-//W3C//DTD SVG 1.1//EN" "http://www.w3.org/Graphics/SVG/1.1/DTD/svg11.dtd">

<svg style="stroke-linejoin:round; stroke:black; stroke-width:0.5pt; text-anchor:middle; fill:none" xmlns="http://www.w3.org/2000/svg" height="297mm" width="210mm" version="1.1" xmlns:xlink="http://www.w3.org/1999/xlink" font-family="Helvetica, Arial, FreeSans, Sans, sans, sans-serif" viewBox="0 0 210 297">

<g>

<circle stroke="none" cx="32.0" r="6.4" cy="32.0" fill="white" />

<circle stroke="none" cx="32.0" r="6.4" cy="64.0" fill="white" />

<circle stroke="none" cx="32.0" r="6.4" cy="96.0" fill="white" />

<circle stroke="none" cx="32.0" r="6.4" cy="128.0" fill="white" />

<circle stroke="none" cx="32.0" r="6.4" cy="160.0" fill="white" />

<circle stroke="none" cx="32.0" r="6.4" cy="192.0" fill="white" />

<circle stroke="none" cx="32.0" r="6.4" cy="224.0" fill="white" />

<circle stroke="none" cx="64.0" r="6.4" cy="32.0" fill="white" />

<circle stroke="none" cx="64.0" r="6.4" cy="64.0" fill="white" />

<circle stroke="none" cx="64.0" r="6.4" cy="96.0" fill="white" />

<circle stroke="none" cx="64.0" r="6.4" cy="128.0" fill="white" />

<circle stroke="none" cx="64.0" r="6.4" cy="160.0" fill="white" />

<circle stroke="none" cx="64.0" r="6.4" cy="192.0" fill="white" />

<circle stroke="none" cx="64.0" r="6.4" cy="224.0" fill="white" />

<circle stroke="none" cx="96.0" r="6.4" cy="32.0" fill="white" />

<circle stroke="none" cx="96.0" r="6.4" cy="64.0" fill="white" />

<circle stroke="none" cx="96.0" r="6.4" cy="96.0" fill="white" />

<circle stroke="none" cx="96.0" r="6.4" cy="128.0" fill="white" />

<circle stroke="none" cx="96.0" r="6.4" cy="160.0" fill="white" />

<circle stroke="none" cx="96.0" r="6.4" cy="192.0" fill="white" />

<circle stroke="none" cx="96.0" r="6.4" cy="224.0" fill="white" />

<circle stroke="none" cx="128.0" r="6.4" cy="32.0" fill="white" />

<circle stroke="none" cx="128.0" r="6.4" cy="64.0" fill="white" />

<circle stroke="none" cx="128.0" r="6.4" cy="96.0" fill="white" />

<circle stroke="none" cx="128.0" r="6.4" cy="128.0" fill="white" />

<circle stroke="none" cx="128.0" r="6.4" cy="160.0" fill="white" />

<circle stroke="none" cx="128.0" r="6.4" cy="192.0" fill="white" />

<circle stroke="none" cx="128.0" r="6.4" cy="224.0" fill="white" />

<circle stroke="none" cx="160.0" r="6.4" cy="32.0" fill="white" />

<circle stroke="none" cx="160.0" r="6.4" cy="64.0" fill="white" />

<circle stroke="none" cx="160.0" r="6.4" cy="96.0" fill="white" />

<circle stroke="none" cx="160.0" r="6.4" cy="128.0" fill="white" />

<circle stroke="none" cx="160.0" r="6.4" cy="160.0" fill="white" />

<circle stroke="none" cx="160.0" r="6.4" cy="192.0" fill="white" />

<circle stroke="none" cx="160.0" r="6.4" cy="224.0" fill="white" />

<circle stroke="none" cx="192.0" r="6.4" cy="32.0" fill="white" />

<circle stroke="none" cx="192.0" r="6.4" cy="64.0" fill="white" />

<circle stroke="none" cx="192.0" r="6.4" cy="96.0" fill="white" />

<circle stroke="none" cx="192.0" r="6.4" cy="128.0" fill="white" />

<circle stroke="none" cx="192.0" r="6.4" cy="160.0" fill="white" />

<circle stroke="none" cx="192.0" r="6.4" cy="192.0" fill="white" />

<circle stroke="none" cx="192.0" r="6.4" cy="224.0" fill="white" />

</g>

</svg>

